<svg width="24" height="27" viewBox="0 0 24 27" fill="none" xmlns="http://www.w3.org/2000/svg">
<path d="M0.318634 15.4524C0.741896 15.8617 1.42624 15.8598 1.84722 15.4484L14.8403 2.74718C16.526 1.10822 18.8835 2.5925 20.5724 4.23368C22.2599 5.8753 22.2599 8.53721 20.5722 10.1782L7.19443 23.2533C6.142 24.2765 4.43097 24.2765 3.3755 23.2511C2.32034 22.2252 1.78118 20.0841 2.83659 19.0579L13.9188 8.28303C13.9195 8.28234 13.9201 8.28155 13.9208 8.28086C14.343 7.87263 15.5646 7.87756 15.9859 8.28721C16.408 8.69756 16.4079 9.83597 15.9858 10.2463L10.6366 15.4484C10.2145 15.8588 10.2146 16.5242 10.6367 16.9346C11.0589 17.3449 11.7432 17.3449 12.1653 16.9344L17.5145 11.7325C18.7807 10.5014 18.7808 8.03219 17.5145 6.80106C16.2483 5.56993 13.6563 5.56555 12.39 6.79668C12.3885 6.79811 12.3873 6.79963 12.3859 6.80106L1.30806 17.5718C-0.5916 19.4187 -0.0524426 22.8907 1.84722 24.7376C3.74713 26.5835 6.8265 26.5835 8.72504 24.7376L22.1028 11.6624C24.6327 9.20263 24.6327 5.21028 22.1009 2.74748C19.5675 0.285566 15.8416 -1.19871 13.3097 1.263L0.31448 13.9662C-0.106451 14.3777 -0.104576 15.043 0.318634 15.4524Z" fill="#5492CE"/>
</svg>
